<svg width="600" height="732" viewBox="0 0 600 732" fill="none" xmlns="http://www.w3.org/2000/svg">
<path fill-rule="evenodd" clip-rule="evenodd" d="M200 52.25H400C406.63 52.25 412.989 49.4976 417.678 44.5982C422.366 39.6988 425 33.0538 425 26.125C425 19.1962 422.366 12.5512 417.678 7.65183C412.989 2.75245 406.63 0 400 0H200C193.37 0 187.011 2.75245 182.322 7.65183C177.634 12.5512 175 19.1962 175 26.125C175 33.0538 177.634 39.6988 182.322 44.5982C187.011 49.4976 193.37 52.25 200 52.25Z" fill="white"/>
<path fill-rule="evenodd" clip-rule="evenodd" d="M525 52.25H475C461.2 52.25 450 63.954 450 78.375C450 92.796 438.8 104.5 425 104.5H175C161.2 104.5 150 92.796 150 78.375C150 63.954 138.8 52.25 125 52.25H75C55.1088 52.25 36.0322 60.5073 21.967 75.2055C7.90176 89.9037 0 109.839 0 130.625V653.125C0 673.911 7.90176 693.846 21.967 708.544C36.0322 723.243 55.1088 731.5 75 731.5H525C544.891 731.5 563.968 723.243 578.033 708.544C592.098 693.846 600 673.911 600 653.125V130.625C600 109.839 592.098 89.9037 578.033 75.2055C563.968 60.5073 544.891 52.25 525 52.25Z" fill="white"/>
<path fill-rule="evenodd" clip-rule="evenodd" d="M200 52.25H400C406.63 52.25 412.989 49.4976 417.678 44.5982C422.366 39.6988 425 33.0538 425 26.125C425 19.1962 422.366 12.5512 417.678 7.65183C412.989 2.75245 406.63 0 400 0H200C193.37 0 187.011 2.75245 182.322 7.65183C177.634 12.5512 175 19.1962 175 26.125C175 33.0538 177.634 39.6988 182.322 44.5982C187.011 49.4976 193.37 52.25 200 52.25Z" fill="white"/>
</svg>
